<svg width="67" height="67" viewBox="0 0 67 67" fill="none" xmlns="http://www.w3.org/2000/svg">
<path d="M17.1523 52.9878H30.9023V55.7378H28.1523C26.5023 55.7378 25.4023 56.8378 25.4023 58.4878C25.4023 60.1378 26.5023 61.2378 28.1523 61.2378H39.1523C40.8023 61.2378 41.9023 60.1378 41.9023 58.4878C41.9023 56.8378 40.8023 55.7378 39.1523 55.7378H36.4023V52.9878H50.1523C56.2023 52.9878 61.1523 48.0378 61.1523 41.9878V22.7378C61.1523 16.6878 56.2023 11.7378 50.1523 11.7378H17.1523C11.1023 11.7378 6.15234 16.6878 6.15234 22.7378V41.9878C6.15234 48.0378 11.1023 52.9878 17.1523 52.9878ZM50.1523 47.4878H17.1523C15.2273 47.4878 13.3023 46.3878 12.4773 44.7378H54.8273C54.0023 46.3878 52.0773 47.4878 50.1523 47.4878ZM17.1523 17.2378H50.1523C53.1773 17.2378 55.6523 19.7128 55.6523 22.7378V39.2378H11.6523V22.7378C11.6523 19.7128 14.1273 17.2378 17.1523 17.2378Z" fill="white"/>
<path d="M26.2273 35.6628C26.7773 36.2128 27.3273 36.4878 28.1523 36.4878C28.9773 36.4878 29.5273 36.2128 30.0773 35.6628C31.1773 34.5628 31.1773 32.9128 30.0773 31.8128L26.5023 28.2378L30.0773 24.6628C31.1773 23.5628 31.1773 21.9128 30.0773 20.8128C28.9773 19.7128 27.3273 19.7128 26.2273 20.8128L20.7273 26.3128C19.6273 27.4128 19.6273 29.0628 20.7273 30.1628L26.2273 35.6628ZM37.2273 35.6628C37.7773 36.2128 38.6023 36.4878 39.1523 36.4878C39.7023 36.4878 40.5273 36.2128 41.0773 35.6628L46.5773 30.1628C47.6773 29.0628 47.6773 27.4128 46.5773 26.3128L41.0773 20.8128C39.9773 19.7128 38.3273 19.7128 37.2273 20.8128C36.1273 21.9128 36.1273 23.5628 37.2273 24.6628L40.8023 28.2378L37.2273 31.8128C36.1273 32.9128 36.1273 34.5628 37.2273 35.6628Z" fill="white"/>
</svg>
