<svg width="19" height="30" viewBox="0 0 19 30" fill="none" xmlns="http://www.w3.org/2000/svg">
<path d="M18.4852 1.56058C18.4852 1.3499 18.4 1.14786 18.2484 0.998888C18.0968 0.84992 17.8912 0.76623 17.6768 0.76623H13.635C11.5997 0.666604 9.60709 1.36261 8.09241 2.70218C6.57774 4.04174 5.66418 5.91597 5.55136 7.91534V12.2048H1.50954C1.29515 12.2048 1.08953 12.2885 0.937937 12.4375C0.786339 12.5864 0.701172 12.7885 0.701172 12.9992V17.1298C0.701172 17.3404 0.786339 17.5425 0.937937 17.6914C1.08953 17.8404 1.29515 17.9241 1.50954 17.9241H5.55136V28.5683C5.55136 28.779 5.63653 28.981 5.78813 29.13C5.93972 29.279 6.14533 29.3627 6.35973 29.3627H11.2099C11.4243 29.3627 11.6299 29.279 11.7815 29.13C11.9331 28.981 12.0183 28.779 12.0183 28.5683V17.9241H16.2541C16.4339 17.9266 16.6094 17.8702 16.7528 17.7638C16.8963 17.6573 16.9996 17.5069 17.0463 17.3363L18.2104 13.2057C18.2425 13.0883 18.2468 12.9653 18.223 12.846C18.1991 12.7267 18.1478 12.6144 18.0728 12.5177C17.9978 12.421 17.9013 12.3426 17.7906 12.2883C17.6799 12.2341 17.558 12.2055 17.4343 12.2048H12.0183V7.91534C12.0585 7.5221 12.2464 7.15771 12.5454 6.89333C12.8443 6.62894 13.2328 6.48354 13.635 6.48552H17.6768C17.8912 6.48552 18.0968 6.40183 18.2484 6.25286C18.4 6.10389 18.4852 5.90185 18.4852 5.69117V1.56058Z" fill="white"/>
</svg>
