<svg width="31" height="51" viewBox="0 0 31 51" fill="none" xmlns="http://www.w3.org/2000/svg">
<path d="M25.5777 0.701416H5.66062C4.344 0.701416 3.0813 1.22444 2.15031 2.15544C1.21932 3.08643 0.696289 4.34913 0.696289 5.66575V45.4774C0.696289 48.2208 2.91979 50.4443 5.66062 50.4443H25.5752C26.892 50.4443 28.155 49.9213 29.0864 48.9904C30.0178 48.0595 30.5413 46.7968 30.542 45.4799V5.66575C30.542 4.34913 30.019 3.08643 29.088 2.15544C28.157 1.22444 26.8943 0.701416 25.5777 0.701416ZM15.6191 47.9571C13.903 47.9571 12.5102 46.8454 12.5102 45.47C12.5102 44.0946 13.903 42.9828 15.6191 42.9828C17.3353 42.9828 18.7281 44.0946 18.7281 45.47C18.7281 46.8454 17.3353 47.9571 15.6191 47.9571ZM25.5677 40.4957H5.67057V5.6757H25.5677V40.4957Z" fill="white"/>
</svg>
