<svg width="46" height="51" viewBox="0 0 46 51" fill="none" xmlns="http://www.w3.org/2000/svg">
<path d="M32.6922 51.007H12.6335C12.4118 51.007 12.1992 50.919 12.0425 50.7622C11.8857 50.6055 11.7977 50.3929 11.7977 50.1712C11.7977 49.9496 11.8857 49.737 12.0425 49.5802C12.1992 49.4235 12.4118 49.3355 12.6335 49.3355H32.6922C32.9139 49.3355 33.1265 49.4235 33.2832 49.5802C33.4399 49.737 33.528 49.9496 33.528 50.1712C33.528 50.3929 33.4399 50.6055 33.2832 50.7622C33.1265 50.919 32.9139 51.007 32.6922 51.007ZM40.2143 0.860107H5.11142C4.88975 0.860107 4.67717 0.948163 4.52043 1.1049C4.36369 1.26164 4.27563 1.47423 4.27563 1.69589V7.54636H41.05V1.69589C41.05 1.47423 40.962 1.26164 40.8052 1.1049C40.6485 0.948163 40.4359 0.860107 40.2143 0.860107ZM21.8271 5.03902H7.61876C7.3971 5.03902 7.18451 4.95096 7.02778 4.79422C6.87104 4.63748 6.78298 4.4249 6.78298 4.20323C6.78298 3.98157 6.87104 3.76899 7.02778 3.61225C7.18451 3.45551 7.3971 3.36745 7.61876 3.36745H21.8271C22.0487 3.36745 22.2613 3.45551 22.418 3.61225C22.5748 3.76899 22.6628 3.98157 22.6628 4.20323C22.6628 4.4249 22.5748 4.63748 22.418 4.79422C22.2613 4.95096 22.0487 5.03902 21.8271 5.03902ZM26.8417 5.8748C26.5111 5.8748 26.188 5.77676 25.9131 5.59309C25.6382 5.40942 25.4239 5.14835 25.2974 4.84291C25.1709 4.53748 25.1378 4.20138 25.2023 3.87713C25.2668 3.55288 25.426 3.25503 25.6598 3.02126C25.8935 2.78749 26.1914 2.62829 26.5156 2.56379C26.8399 2.49929 27.176 2.53239 27.4814 2.65891C27.7869 2.78543 28.0479 2.99968 28.2316 3.27456C28.4153 3.54945 28.5133 3.87263 28.5133 4.20323C28.5133 4.64656 28.3372 5.07173 28.0237 5.38521C27.7102 5.69869 27.2851 5.8748 26.8417 5.8748ZM31.8564 5.8748C31.5258 5.8748 31.2027 5.77676 30.9278 5.59309C30.6529 5.40942 30.4386 5.14835 30.3121 4.84291C30.1856 4.53748 30.1525 4.20138 30.217 3.87713C30.2815 3.55288 30.4407 3.25503 30.6745 3.02126C30.9082 2.78749 31.2061 2.62829 31.5303 2.56379C31.8546 2.49929 32.1907 2.53239 32.4961 2.65891C32.8016 2.78543 33.0626 2.99968 33.2463 3.27456C33.43 3.54945 33.528 3.87263 33.528 4.20323C33.528 4.64656 33.3519 5.07173 33.0384 5.38521C32.7249 5.69869 32.2998 5.8748 31.8564 5.8748ZM36.8711 5.8748C36.5405 5.8748 36.2173 5.77676 35.9425 5.59309C35.6676 5.40942 35.4533 5.14835 35.3268 4.84291C35.2003 4.53748 35.1672 4.20138 35.2317 3.87713C35.2962 3.55288 35.4554 3.25503 35.6892 3.02126C35.9229 2.78749 36.2208 2.62829 36.545 2.56379C36.8693 2.49929 37.2054 2.53239 37.5108 2.65891C37.8162 2.78543 38.0773 2.99968 38.261 3.27456C38.4447 3.54945 38.5427 3.87263 38.5427 4.20323C38.5427 4.64656 38.3666 5.07173 38.0531 5.38521C37.7396 5.69869 37.3145 5.8748 36.8711 5.8748ZM4.27563 9.21793V25.9336C4.27563 26.1552 4.36369 26.3678 4.52043 26.5245C4.67717 26.6813 4.88975 26.7693 5.11142 26.7693H40.2143C40.4359 26.7693 40.6485 26.6813 40.8052 26.5245C40.962 26.3678 41.05 26.1552 41.05 25.9336V9.21793H4.27563ZM9.14824 20.4592C9.26921 20.6435 9.31248 20.868 9.26865 21.0841C9.22482 21.3001 9.09744 21.49 8.91422 21.6126C8.77963 21.7068 8.61886 21.7565 8.45454 21.7547C8.31688 21.7539 8.18153 21.7192 8.06051 21.6536C7.93949 21.588 7.83656 21.4935 7.76084 21.3786L6.08928 18.8712C5.99941 18.7347 5.95152 18.5749 5.95152 18.4115C5.95152 18.2481 5.99941 18.0883 6.08928 17.9518L7.76084 15.4445C7.89148 15.2823 8.07795 15.1748 8.28374 15.1429C8.48953 15.111 8.69981 15.1571 8.8734 15.2721C9.04699 15.3871 9.17139 15.5628 9.22222 15.7648C9.27306 15.9667 9.24668 16.1803 9.14824 16.3639L7.78592 18.4115L9.14824 20.4592ZM13.4692 15.386L11.7977 21.8549C11.7503 22.0388 11.6417 22.2011 11.4898 22.315C11.3379 22.429 11.1517 22.4878 10.9619 22.4818C10.8925 22.4899 10.8224 22.4899 10.7529 22.4818C10.6414 22.4576 10.536 22.4108 10.4432 22.3442C10.3504 22.2777 10.2723 22.1929 10.2135 22.095C10.1548 21.9971 10.1167 21.8882 10.1017 21.7751C10.0867 21.6619 10.095 21.5469 10.1261 21.4371L11.7977 14.9681C11.8531 14.7531 11.9916 14.5689 12.1829 14.456C12.3741 14.3432 12.6023 14.3109 12.8173 14.3663C13.0323 14.4218 13.2165 14.5603 13.3294 14.7515C13.4422 14.9428 13.4745 15.171 13.4191 15.386H13.4692ZM17.5311 18.8712L15.8596 21.3786C15.7816 21.4971 15.6746 21.5939 15.5489 21.6597C15.4231 21.7255 15.2827 21.7581 15.1408 21.7547C14.9765 21.7565 14.8157 21.7068 14.6811 21.6126C14.4979 21.49 14.3705 21.3001 14.3267 21.0841C14.2829 20.868 14.3261 20.6435 14.4471 20.4592L15.8094 18.4115L14.4471 16.3639C14.3741 16.2733 14.3209 16.1685 14.2908 16.0562C14.2606 15.9439 14.2543 15.8265 14.2721 15.7116C14.2899 15.5967 14.3315 15.4867 14.3942 15.3888C14.4569 15.2909 14.5394 15.2071 14.6363 15.1429C14.7333 15.0786 14.8425 15.0353 14.9572 15.0157C15.0718 14.9961 15.1892 15.0007 15.302 15.0291C15.4148 15.0575 15.5204 15.1091 15.6121 15.1806C15.7038 15.2521 15.7795 15.342 15.8345 15.4445L17.5061 17.9518C17.5959 18.0883 17.6438 18.2481 17.6438 18.4115C17.6438 18.5749 17.5959 18.7347 17.5061 18.8712H17.5311ZM39.3785 22.5904C39.3785 23.2554 39.1143 23.8932 38.6441 24.3634C38.1739 24.8336 37.5361 25.0978 36.8711 25.0978H22.6628C21.9978 25.0978 21.3601 24.8336 20.8899 24.3634C20.4197 23.8932 20.1555 23.2554 20.1555 22.5904V14.2326C20.1555 13.5676 20.4197 12.9299 20.8899 12.4597C21.3601 11.9894 21.9978 11.7253 22.6628 11.7253H36.8711C37.5361 11.7253 38.1739 11.9894 38.6441 12.4597C39.1143 12.9299 39.3785 13.5676 39.3785 14.2326V22.5904Z" fill="white"/>
<path d="M45.2289 8.38221V30.9483H0.0967037V8.38221C0.0939345 7.57087 0.330274 6.77669 0.776203 6.09888C1.22213 5.42107 1.85788 4.88967 2.60405 4.57104V25.9336C2.60405 26.5986 2.86821 27.2364 3.33843 27.7066C3.80865 28.1768 4.44641 28.441 5.11139 28.441H40.2142C40.8792 28.441 41.517 28.1768 41.9872 27.7066C42.4574 27.2364 42.7216 26.5986 42.7216 25.9336V4.57104C43.4677 4.88967 44.1035 5.42107 44.5494 6.09888C44.9954 6.77669 45.2317 7.57087 45.2289 8.38221ZM30.0929 49.3355H15.2327L18.0994 40.9777H27.2262L30.0929 49.3355Z" fill="white"/>
<path d="M0.0966797 32.6198V35.1272C0.0966797 36.2355 0.536956 37.2984 1.32065 38.0821C2.10435 38.8658 3.16727 39.3061 4.27559 39.3061H41.05C42.1583 39.3061 43.2212 38.8658 44.0049 38.0821C44.7886 37.2984 45.2289 36.2355 45.2289 35.1272V32.6198H0.0966797ZM23.4986 36.7987H21.827C21.6053 36.7987 21.3928 36.7107 21.236 36.5539C21.0793 36.3972 20.9912 36.1846 20.9912 35.963C20.9912 35.7413 21.0793 35.5287 21.236 35.372C21.3928 35.2152 21.6053 35.1272 21.827 35.1272H23.4986C23.7202 35.1272 23.9328 35.2152 24.0896 35.372C24.2463 35.5287 24.3344 35.7413 24.3344 35.963C24.3344 36.1846 24.2463 36.3972 24.0896 36.5539C23.9328 36.7107 23.7202 36.7987 23.4986 36.7987ZM27.7861 23.4262H23.0055L25.1701 21.2866C25.2571 21.1969 25.363 21.1278 25.4802 21.0844C25.5973 21.041 25.7227 21.0244 25.8471 21.0359C25.9703 21.0494 26.089 21.0902 26.1945 21.1552C26.3001 21.2203 26.3898 21.308 26.4572 21.412L27.7861 23.4262ZM36.6789 23.4262H29.792L28.7222 21.8132L31.2296 18.7709C31.3072 18.6777 31.4043 18.6024 31.514 18.5505C31.6237 18.4985 31.7434 18.4711 31.8647 18.47C31.9847 18.4604 32.1052 18.4814 32.2149 18.5312C32.3245 18.5809 32.4197 18.6576 32.4916 18.7542L36.6789 23.4262Z" fill="white"/>
<path d="M36.8712 13.3967H22.6629C22.4413 13.3967 22.2287 13.4848 22.0719 13.6415C21.9152 13.7983 21.8271 14.0108 21.8271 14.2325V22.2477L23.9668 20.083C24.2212 19.831 24.5266 19.6364 24.8625 19.5124C25.1984 19.3883 25.557 19.3376 25.9142 19.3638C26.2713 19.3899 26.6187 19.4922 26.933 19.6639C27.2472 19.8355 27.5211 20.0725 27.7361 20.3588L29.9677 17.6843C30.2005 17.4097 30.4896 17.1884 30.8156 17.0355C31.1415 16.8827 31.4965 16.8018 31.8565 16.7984C32.2099 16.7979 32.5593 16.8721 32.8819 17.0162C33.2046 17.1602 33.4931 17.3708 33.7287 17.6341L37.707 22.0638V14.2325C37.707 14.0108 37.6189 13.7983 37.4622 13.6415C37.3055 13.4848 37.0929 13.3967 36.8712 13.3967ZM26.0061 18.4114C25.6755 18.4114 25.3523 18.3134 25.0774 18.1297C24.8025 17.946 24.5883 17.685 24.4617 17.3795C24.3352 17.0741 24.3021 16.738 24.3666 16.4137C24.4311 16.0895 24.5903 15.7917 24.8241 15.5579C25.0579 15.3241 25.3557 15.1649 25.68 15.1004C26.0042 15.0359 26.3403 15.069 26.6457 15.1955C26.9512 15.322 27.2122 15.5363 27.3959 15.8112C27.5796 16.0861 27.6776 16.4093 27.6776 16.7399C27.6776 17.1832 27.5015 17.6084 27.188 17.9218C26.8746 18.2353 26.4494 18.4114 26.0061 18.4114Z" fill="white"/>
</svg>
