<svg width="47" height="43" viewBox="0 0 47 43" fill="none" xmlns="http://www.w3.org/2000/svg">
<path d="M4.0529 0.934814H42.5869C43.516 0.934814 44.407 1.30389 45.064 1.96085C45.7209 2.6178 46.09 3.50883 46.09 4.43791V11.4441H0.549805V4.43791C0.549805 3.50883 0.91888 2.6178 1.57584 1.96085C2.23279 1.30389 3.12382 0.934814 4.0529 0.934814Z" fill="white"/>
<path d="M1.0498 11.9443H45.59V39.4691C45.59 40.2655 45.2736 41.0294 44.7104 41.5926C44.1472 42.1558 43.3834 42.4722 42.5869 42.4722H4.0529C3.25643 42.4722 2.49258 42.1558 1.92939 41.5926C1.3662 41.0294 1.0498 40.2655 1.0498 39.4691V11.9443Z" stroke="white"/>
<path d="M26.8229 20.2019H23.3198C22.8553 20.2019 22.4098 20.3864 22.0813 20.7149C21.7528 21.0434 21.5683 21.4889 21.5683 21.9535V32.4627C21.5683 32.9273 21.7528 33.3728 22.0813 33.7013C22.4098 34.0297 22.8553 34.2143 23.3198 34.2143C23.7844 34.2143 24.2299 34.0297 24.5584 33.7013C24.8868 33.3728 25.0714 32.9273 25.0714 32.4627V30.7112H26.8229C28.2165 30.7112 29.5531 30.1576 30.5385 29.1721C31.5239 28.1867 32.0776 26.8502 32.0776 25.4565C32.0776 24.0629 31.5239 22.7264 30.5385 21.741C29.5531 20.7555 28.2165 20.2019 26.8229 20.2019ZM26.8229 27.2081H25.0714V23.705H26.8229C27.2875 23.705 27.733 23.8895 28.0615 24.218C28.3899 24.5465 28.5745 24.992 28.5745 25.4565C28.5745 25.9211 28.3899 26.3666 28.0615 26.6951C27.733 27.0236 27.2875 27.2081 26.8229 27.2081ZM12.8105 20.2019C11.4169 20.2019 10.0804 20.7555 9.09496 21.741C8.10952 22.7264 7.55591 24.0629 7.55591 25.4565V32.4627C7.55591 32.9273 7.74044 33.3728 8.06892 33.7013C8.3974 34.0297 8.84292 34.2143 9.30745 34.2143C9.77199 34.2143 10.2175 34.0297 10.546 33.7013C10.8745 33.3728 11.059 32.9273 11.059 32.4627V30.7112H14.5621V32.4627C14.5621 32.9273 14.7466 33.3728 15.0751 33.7013C15.4036 34.0297 15.8491 34.2143 16.3136 34.2143C16.7782 34.2143 17.2237 34.0297 17.5522 33.7013C17.8807 33.3728 18.0652 32.9273 18.0652 32.4627V25.4565C18.0652 24.0629 17.5116 22.7264 16.5261 21.741C15.5407 20.7555 14.2042 20.2019 12.8105 20.2019ZM11.059 27.2081V25.4565C11.059 24.992 11.2435 24.5465 11.572 24.218C11.9005 23.8895 12.346 23.705 12.8105 23.705C13.2751 23.705 13.7206 23.8895 14.0491 24.218C14.3776 24.5465 14.5621 24.992 14.5621 25.4565V27.2081H11.059ZM37.3322 34.2143C36.8677 34.2143 36.4221 34.0297 36.0937 33.7013C35.7652 33.3728 35.5807 32.9273 35.5807 32.4627V21.9535C35.5807 21.4889 35.7652 21.0434 36.0937 20.7149C36.4221 20.3864 36.8677 20.2019 37.3322 20.2019C37.7967 20.2019 38.2422 20.3864 38.5707 20.7149C38.8992 21.0434 39.0837 21.4889 39.0837 21.9535V32.4627C39.0837 32.9273 38.8992 33.3728 38.5707 33.7013C38.2422 34.0297 37.7967 34.2143 37.3322 34.2143Z" fill="white"/>
</svg>
