<svg width="43" height="42" viewBox="0 0 43 42" fill="none" xmlns="http://www.w3.org/2000/svg">
<path d="M25.8957 24.7693C25.6913 24.9981 25.4422 25.1826 25.1638 25.3115C24.8854 25.4404 24.5836 25.5109 24.2769 25.5188H24.187C23.5909 25.5183 23.0194 25.281 22.5981 24.8593L18.1014 20.3625C17.8822 20.1434 17.7108 19.8813 17.5977 19.5928C17.4847 19.3043 17.4325 18.9955 17.4445 18.6859C17.4565 18.3762 17.5323 18.0724 17.6673 17.7934C17.8022 17.5145 17.9934 17.2665 18.2288 17.0649L32.431 4.96862L32.2736 4.81123C30.762 3.29269 28.9643 2.0889 26.9845 1.26945C25.0047 0.450007 22.8821 0.0311743 20.7394 0.0371729C17.9901 0.0299833 15.2836 0.718979 12.8723 2.03994C10.461 3.36091 8.42341 5.27084 6.9494 7.59172C3.01678 13.7784 0.936358 20.9611 0.953721 28.2918C0.953728 31.3817 1.99711 34.381 3.91479 36.8038C5.83246 39.2266 8.51207 40.9308 11.5194 41.6404C14.5267 42.3499 17.6855 42.0232 20.4839 40.7131C23.2823 39.403 25.5563 37.1864 26.9375 34.4224C27.1607 33.9779 27.4862 33.5928 27.8874 33.2987C28.2885 33.0047 28.7538 32.8101 29.2448 32.7311C29.7359 32.652 30.2387 32.6908 30.7119 32.8441C31.185 32.9974 31.615 33.2609 31.9664 33.613L32.5959 34.2425C33.4418 35.0895 34.5199 35.6664 35.6939 35.9002C36.8678 36.134 38.0847 36.0142 39.1906 35.556C40.2964 35.0978 41.2414 34.3217 41.9059 33.3261C42.5704 32.3305 42.9245 31.1601 42.9234 29.9631C42.9421 23.3036 41.04 16.78 37.4449 11.1741L25.8957 24.7693ZM21.9386 3.03501C22.3833 3.03501 22.818 3.16688 23.1877 3.41393C23.5575 3.66099 23.8456 4.01213 24.0158 4.42297C24.186 4.83381 24.2305 5.28588 24.1438 5.72203C24.057 6.15817 23.8429 6.55879 23.5284 6.87323C23.214 7.18767 22.8134 7.40181 22.3772 7.48857C21.9411 7.57532 21.489 7.53079 21.0782 7.36062C20.6673 7.19045 20.3162 6.90227 20.0691 6.53252C19.8221 6.16278 19.6902 5.72808 19.6902 5.28339C19.6902 4.68708 19.9271 4.1152 20.3487 3.69355C20.7704 3.27189 21.3423 3.03501 21.9386 3.03501ZM15.9429 6.03285C16.5358 6.03285 17.1154 6.20867 17.6084 6.53808C18.1014 6.86748 18.4856 7.33568 18.7125 7.88346C18.9394 8.43125 18.9988 9.03401 18.8831 9.61554C18.7675 10.1971 18.482 10.7312 18.0627 11.1505C17.6434 11.5697 17.1093 11.8553 16.5278 11.9709C15.9462 12.0866 15.3435 12.0272 14.7957 11.8003C14.2479 11.5734 13.7797 11.1892 13.4503 10.6962C13.1209 10.2032 12.9451 9.6236 12.9451 9.03069C12.9451 8.23561 13.2609 7.4731 13.8231 6.9109C14.3853 6.34869 15.1478 6.03285 15.9429 6.03285ZM10.6967 12.0285C11.4378 12.0285 12.1623 12.2483 12.7786 12.6601C13.3948 13.0718 13.8751 13.6571 14.1587 14.3418C14.4424 15.0265 14.5166 15.78 14.372 16.5069C14.2274 17.2338 13.8705 17.9015 13.3464 18.4256C12.8224 18.9496 12.1547 19.3065 11.4278 19.4511C10.7009 19.5957 9.94739 19.5215 9.26267 19.2379C8.57794 18.9542 7.99269 18.4739 7.58093 17.8577C7.16917 17.2415 6.9494 16.517 6.9494 15.7758C6.9494 14.782 7.3442 13.8288 8.04695 13.1261C8.74971 12.4233 9.70285 12.0285 10.6967 12.0285ZM18.2437 31.5744C17.1255 32.1382 15.8912 32.4334 14.6388 32.4363C13.7675 32.4341 12.9022 32.2924 12.0757 32.0166L8.20849 30.765C8.05855 30.7157 7.92799 30.6204 7.83543 30.4925C7.74288 30.3647 7.69305 30.2109 7.69305 30.053C7.69305 29.8952 7.74288 29.7414 7.83543 29.6135C7.92799 29.4857 8.05855 29.3903 8.20849 29.341L12.4729 27.9246C12.6145 27.8784 12.7415 27.796 12.8414 27.6855C12.9413 27.5751 13.0107 27.4405 13.0425 27.295C13.0769 27.1503 13.0736 26.9993 13.0329 26.8563C12.9922 26.7132 12.9155 26.583 12.8102 26.4781C12.3681 26.0342 12.1198 25.4333 12.1198 24.8068C12.1198 24.1803 12.3681 23.5794 12.8102 23.1355L13.0875 22.8582C13.661 22.2758 14.3875 21.8675 15.1832 21.6805C15.979 21.4935 16.8113 21.5354 17.5842 21.8015C18.5809 22.1367 19.456 22.7592 20.0996 23.5908C20.7431 24.4223 21.1263 25.4257 21.2008 26.4745C21.2753 27.5233 21.0379 28.5708 20.5184 29.485C19.9988 30.3991 19.2205 31.1392 18.2812 31.6119L18.2437 31.5744Z" fill="white"/>
</svg>
