<svg width="53" height="48" viewBox="0 0 53 48" fill="none" xmlns="http://www.w3.org/2000/svg">
<path d="M22.9943 36.0172L32.3716 30.6453C33.9502 29.75 33.9502 27.4646 32.3716 26.5457L22.9943 21.1738C21.4157 20.2784 19.4602 21.4329 19.4602 23.2236V33.9439C19.4602 35.7581 21.4157 36.9125 22.9943 36.0172ZM47.7334 9.74666H29.8506L36.7775 2.81971C37.2488 2.34849 37.2488 1.61809 36.7775 1.14687C36.3063 0.675652 35.5759 0.675652 35.1047 1.14687L26.5285 9.7231L17.9523 1.14687C17.481 0.675652 16.7506 0.675652 16.2794 1.14687C15.8082 1.61809 15.8082 2.34849 16.2794 2.81971L23.2064 9.74666H5.32354C2.73182 9.74666 0.611328 11.8436 0.611328 14.4589V42.7321C0.611328 45.3238 2.73182 47.4443 5.32354 47.4443H47.7334C50.3251 47.4443 52.4456 45.3238 52.4456 42.7321V14.4589C52.4456 11.8436 50.3251 9.74666 47.7334 9.74666ZM45.3773 42.7321H7.67964C6.38378 42.7321 5.32354 41.6719 5.32354 40.376V16.815C5.32354 15.5191 6.38378 14.4589 7.67964 14.4589H45.3773C46.6732 14.4589 47.7334 15.5191 47.7334 16.815V40.376C47.7334 41.6719 46.6732 42.7321 45.3773 42.7321Z" fill="white"/>
</svg>
