<svg width="42" height="51" viewBox="0 0 42 51" fill="none" xmlns="http://www.w3.org/2000/svg">
<path fill-rule="evenodd" clip-rule="evenodd" d="M0.646484 11.6911C0.646484 5.62169 5.56676 0.701416 11.6362 0.701416H30.1452C36.2148 0.701416 41.1349 5.62169 41.1349 11.6911V39.4547C41.1349 45.5242 36.2148 50.4444 30.1452 50.4444H11.6362C5.56676 50.4444 0.646484 45.5242 0.646484 39.4547V11.6911ZM11.6362 4.17186C7.48341 4.17186 4.11692 7.53834 4.11692 11.6911V39.4547C4.11692 43.6074 7.48341 46.9739 11.6362 46.9739H30.1452C34.2979 46.9739 37.6645 43.6074 37.6645 39.4547V11.6911C37.6645 7.53834 34.2979 4.17186 30.1452 4.17186H11.6362Z" fill="white"/>
<path fill-rule="evenodd" clip-rule="evenodd" d="M23.6901 15.439C22.1245 13.9406 19.6567 13.9406 18.0911 15.439L12.0241 21.2457C9.19314 23.9552 9.19314 28.3812 12.0241 31.0907C14.0999 33.0776 17.1006 33.5727 19.6318 32.6301C20.4017 32.3432 21.3795 32.3432 22.1494 32.6301C24.6805 33.5727 27.6813 33.0776 29.7571 31.0907C32.5881 28.3812 32.5881 23.9552 29.7571 21.2457L23.6901 15.439Z" fill="white"/>
<path fill-rule="evenodd" clip-rule="evenodd" d="M20.8905 29.6216C21.8488 29.6216 22.6257 30.3985 22.6257 31.3568V35.9841C22.6257 36.9424 21.8488 37.7193 20.8905 37.7193C19.9322 37.7193 19.1553 36.9424 19.1553 35.9841V31.3568C19.1553 30.3985 19.9322 29.6216 20.8905 29.6216Z" fill="white"/>
</svg>
