<svg width="51" height="49" viewBox="0 0 51 49" fill="none" xmlns="http://www.w3.org/2000/svg">
<path d="M21.6459 33.1721L28.0875 28.7562C28.1828 27.8446 28.5801 26.9909 29.2162 26.3309L27.8654 24.0576L22.3123 28.0962C21.4035 29.8555 20.6658 31.698 20.1091 33.5983C20.654 33.6262 21.1932 33.4766 21.6459 33.1721Z" fill="white"/>
<path d="M32.1801 31.7522C33.5852 31.7522 34.7244 30.6131 34.7244 29.2079C34.7244 27.8027 33.5852 26.6636 32.1801 26.6636C30.7749 26.6636 29.6357 27.8027 29.6357 29.2079C29.6357 30.6131 30.7749 31.7522 32.1801 31.7522Z" fill="white"/>
<path d="M29.3862 0.995111C14.1777 0.225652 8.47791 11.0459 7.20044 14.027L23.2804 16.9922C24.0998 17.1227 24.8778 17.4413 25.5535 17.9229C26.2291 18.4046 26.7839 19.0362 27.1745 19.7682L30.5319 25.418C31.2954 25.08 32.1432 24.9804 32.9642 25.1324C33.7853 25.2844 34.5413 25.6808 35.1332 26.2697C35.7252 26.8587 36.1254 27.6127 36.2816 28.4329C36.4377 29.2532 36.3425 30.1015 36.0083 30.8668C35.6742 31.632 35.1167 32.2784 34.4089 32.7215C33.7011 33.1645 32.876 33.3834 32.0417 33.3495C31.2074 33.3156 30.4028 33.0306 29.7332 32.5317C29.0636 32.0327 28.5604 31.3432 28.2894 30.5534L22.5503 34.4857C21.8661 34.9562 21.0553 35.2082 20.2249 35.2084C20.0899 35.2084 19.956 35.201 19.8211 35.1882L19.7445 35.1808C19.3386 37.334 19.3874 39.467 20.5363 40.9028C23.375 44.4526 31.0409 42.3227 34.5896 41.7531C36.6108 41.4681 38.6544 41.3742 40.6932 41.4725C41.2264 41.4939 41.7582 41.4044 42.255 41.2098C42.7519 41.0152 43.2029 40.7196 43.5797 40.3417C45.8785 38.0376 50.219 32.3708 50.219 22.4401C50.2222 14.9633 45.8838 1.8294 29.3862 0.995111Z" fill="white"/>
<path d="M19.9773 33.6013L17.5329 33.358L17.9899 31.2451L22.3101 28.1004C22.3888 27.9473 22.46 27.8123 22.5227 27.7007C22.8379 27.044 23.0131 26.3288 23.0371 25.6007L18.4979 28.9049L20.2706 20.7214V20.715C22.4536 21.3346 23.1476 23.659 23.0339 25.6039L27.0438 22.6844L25.7801 20.5588C25.4998 20.0335 25.1018 19.58 24.6173 19.2338C24.1329 18.8876 23.575 18.658 22.9871 18.5629L6.77639 15.5701L6.33853 18.3333C6.33853 18.3333 16.5849 20.0731 18.7105 20.4206L18.72 20.3813C18.72 20.3728 18.7317 20.3696 18.7338 20.3622C18.724 20.3808 18.7162 20.4004 18.7105 20.4206L16.6486 29.9156L8.59376 29.1036L10.8161 19.1368C10.8161 19.123 10.8161 19.1092 10.8161 19.0953L9.25163 18.8296L6.99639 28.9431L0.882165 28.3278C0.76803 28.316 0.652696 28.329 0.544066 28.366C0.435437 28.4029 0.33608 28.4629 0.252804 28.5419C0.169527 28.6208 0.1043 28.7168 0.0615914 28.8233C0.0188828 28.9298 -0.000297643 29.0443 0.00536432 29.1589L0.789703 45.0933C0.819277 45.6619 1.02118 46.208 1.36859 46.659C1.71599 47.1101 2.19244 47.4447 2.73461 47.6185L5.21622 48.4081C5.29364 48.4322 5.37427 48.4444 5.45535 48.4443H5.4968C5.60472 48.4391 5.7104 48.4116 5.80713 48.3635L12.3337 45.1486C13.2855 44.6052 14.1122 43.8676 14.7603 42.9838C15.4083 42.0999 15.863 41.0896 16.0949 40.0185L17.1949 34.9298L19.7456 35.1849C19.8455 34.6535 19.9656 34.1274 20.1112 33.6067C20.0655 33.6014 20.0209 33.6056 19.9773 33.6013ZM1.64419 30.0059L3.81334 30.2249L3.89942 31.9976L1.73133 31.785L1.64419 30.0059ZM3.21711 46.0997C2.98421 46.025 2.77956 45.8812 2.63035 45.6874C2.48114 45.4935 2.39444 45.2589 2.38176 45.0146L1.81211 33.3909L3.97913 33.6035L4.60724 46.5366L3.21711 46.0997ZM14.5337 39.6816C14.352 40.5265 13.9957 41.3241 13.4876 42.0233C12.9795 42.7224 12.3309 43.3077 11.5834 43.7414L6.19505 46.3984L5.58182 33.7671L15.5986 34.7662L14.5337 39.6816ZM15.9376 33.1986L5.50317 32.1581L5.41709 30.3864L16.3096 31.4832L15.9376 33.1986Z" fill="white"/>
</svg>
