<svg width="31" height="30" viewBox="0 0 31 30" fill="none" xmlns="http://www.w3.org/2000/svg">
<path fill-rule="evenodd" clip-rule="evenodd" d="M9.63087 0.506682C11.2005 0.435986 11.7008 0.419922 15.6976 0.419922C19.6952 0.419922 20.1947 0.436787 21.7635 0.506682C23.3307 0.576576 24.4009 0.821595 25.3369 1.17907C26.3187 1.54229 27.208 2.1114 27.9431 2.8468C28.6916 3.56905 29.2708 4.44304 29.6403 5.40782C30.004 6.32764 30.2526 7.37921 30.3245 8.91839C30.3965 10.4608 30.4128 10.9524 30.4128 14.8799C30.4128 18.8074 30.3957 19.299 30.3245 20.8415C30.2534 22.3806 30.004 23.4322 29.6403 24.352C29.2643 25.3024 28.7606 26.1097 27.9431 26.913C27.2081 27.6485 26.3187 28.2177 25.3369 28.5808C24.4009 28.9382 23.3307 29.1825 21.7644 29.2532C20.1947 29.3239 19.6944 29.3399 15.6976 29.3399C11.7008 29.3399 11.2005 29.3231 9.63087 29.2532C8.06453 29.1833 6.9944 28.9382 6.05835 28.5808C5.09123 28.2113 4.26964 27.7163 3.45213 26.913C2.70362 26.1908 2.12443 25.3168 1.75497 24.352C1.39118 23.4322 1.14266 22.3806 1.07071 20.8415C0.998769 19.299 0.982422 18.8082 0.982422 14.8799C0.982422 10.9516 0.999585 10.4608 1.07071 8.9192C1.14184 7.37921 1.39118 6.32764 1.75497 5.40782C2.1246 4.4431 2.70375 3.56915 3.45213 2.8468C4.18711 2.11127 5.07653 1.54212 6.05835 1.17907C6.9944 0.821595 8.06453 0.577378 9.63087 0.506682ZM21.6442 3.10948C20.0925 3.04039 19.6266 3.02513 15.6976 3.02513C11.7687 3.02513 11.3027 3.04039 9.75105 3.10948C8.31632 3.17375 7.53723 3.40912 7.01892 3.60755C6.33222 3.86944 5.8417 4.18273 5.32667 4.68883C4.81247 5.19493 4.49282 5.67694 4.22631 6.35173C4.02438 6.86106 3.78485 7.62663 3.71945 9.03648C3.64914 10.5612 3.63361 11.0191 3.63361 14.8799C3.63361 18.7408 3.64914 19.1986 3.71945 20.7234C3.78485 22.1332 4.02438 22.8988 4.22631 23.4082C4.46205 24.0363 4.83806 24.6044 5.32667 25.0711C5.80144 25.5512 6.37971 25.9207 7.01892 26.1523C7.53723 26.3508 8.31632 26.5861 9.75105 26.6504C11.3027 26.7195 11.7679 26.7348 15.6976 26.7348C19.6274 26.7348 20.0925 26.7195 21.6442 26.6504C23.0789 26.5861 23.858 26.3508 24.3764 26.1523C25.0631 25.8904 25.5536 25.5772 26.0686 25.0711C26.5572 24.6046 26.9332 24.0363 27.1689 23.4082C27.3709 22.8988 27.6104 22.1332 27.6758 20.7234C27.7462 19.1986 27.7617 18.7408 27.7617 14.8799C27.7617 11.0191 27.7462 10.5612 27.6758 9.03648C27.6104 7.62663 27.3709 6.86106 27.1689 6.35173C26.9025 5.67694 26.5837 5.19493 26.0686 4.68883C25.5536 4.18355 25.0631 3.86944 24.3764 3.60755C23.858 3.40912 23.0789 3.17375 21.6442 3.10948ZM13.8188 19.3374C14.4145 19.58 15.0528 19.7047 15.6976 19.7047C16.9999 19.7047 18.2487 19.1964 19.1695 18.2916C20.0904 17.3868 20.6077 16.1595 20.6077 14.8799C20.6077 13.6004 20.0904 12.3731 19.1695 11.4683C18.2487 10.5634 16.9999 10.0551 15.6976 10.0551C15.0528 10.0551 14.4145 10.1799 13.8188 10.4224C13.2229 10.6648 12.6817 11.0202 12.2258 11.4683C11.7699 11.9163 11.4082 12.4482 11.1614 13.0335C10.9147 13.6189 10.7877 14.2463 10.7877 14.8799C10.7877 15.5135 10.9147 16.141 11.1614 16.7263C11.4082 17.3117 11.7699 17.8436 12.2258 18.2916C12.6817 18.7396 13.2229 19.095 13.8188 19.3374ZM10.3494 9.62439C11.7678 8.23054 13.6917 7.44747 15.6976 7.44747C17.7037 7.44747 19.6275 8.23054 21.0459 9.62439C22.4644 11.0182 23.2612 12.9088 23.2612 14.8799C23.2612 16.8511 22.4644 18.7415 21.0459 20.1355C19.6275 21.5293 17.7037 22.3124 15.6976 22.3124C13.6917 22.3124 11.7678 21.5293 10.3494 20.1355C8.93094 18.7415 8.13405 16.8511 8.13405 14.8799C8.13405 12.9088 8.93094 11.0182 10.3494 9.62439ZM24.9384 8.55483C25.2736 8.22534 25.462 7.77848 25.462 7.31252C25.462 6.84656 25.2736 6.39969 24.9384 6.07021C24.603 5.74073 24.1483 5.55563 23.6741 5.55563C23.2 5.55563 22.7451 5.74073 22.4099 6.07021C22.0745 6.39969 21.8862 6.84656 21.8862 7.31252C21.8862 7.77848 22.0745 8.22534 22.4099 8.55483C22.7451 8.88431 23.2 9.06941 23.6741 9.06941C24.1483 9.06941 24.603 8.88431 24.9384 8.55483Z" fill="white"/>
</svg>
