<svg width="50" height="50" viewBox="0 0 50 50" fill="none" xmlns="http://www.w3.org/2000/svg">
<path d="M27.0645 22.6882H12.432C11.7852 22.6882 11.1649 22.9451 10.7076 23.4025C10.2502 23.8599 9.99326 24.4802 9.99326 25.127C9.99326 25.7737 10.2502 26.3941 10.7076 26.8514C11.1649 27.3088 11.7852 27.5657 12.432 27.5657H27.0645C27.7113 27.5657 28.3316 27.3088 28.7889 26.8514C29.2463 26.3941 29.5032 25.7737 29.5032 25.127C29.5032 24.4802 29.2463 23.8599 28.7889 23.4025C28.3316 22.9451 27.7113 22.6882 27.0645 22.6882ZM36.8195 12.9332H12.432C11.7852 12.9332 11.1649 13.1902 10.7076 13.6475C10.2502 14.1049 9.99326 14.7252 9.99326 15.372C9.99326 16.0188 10.2502 16.6391 10.7076 17.0964C11.1649 17.5538 11.7852 17.8107 12.432 17.8107H36.8195C37.4663 17.8107 38.0866 17.5538 38.5439 17.0964C39.0013 16.6391 39.2582 16.0188 39.2582 15.372C39.2582 14.7252 39.0013 14.1049 38.5439 13.6475C38.0866 13.1902 37.4663 12.9332 36.8195 12.9332ZM41.6969 0.739502H7.55452C5.61413 0.739502 3.75322 1.51032 2.38116 2.88238C1.0091 4.25444 0.238281 6.11535 0.238281 8.05574V32.4432C0.238281 34.3836 1.0091 36.2445 2.38116 37.6165C3.75322 38.9886 5.61413 39.7594 7.55452 39.7594H35.8196L44.8429 48.8072C45.0708 49.0332 45.3411 49.212 45.6382 49.3334C45.9353 49.4547 46.2535 49.5163 46.5744 49.5144C46.8943 49.5226 47.2117 49.4558 47.5012 49.3193C47.9465 49.1363 48.3278 48.8257 48.5968 48.4264C48.8659 48.0271 49.0108 47.5571 49.0132 47.0757V8.05574C49.0132 6.11535 48.2424 4.25444 46.8703 2.88238C45.4982 1.51032 43.6373 0.739502 41.6969 0.739502ZM44.1357 41.1983L38.551 35.5892C38.3231 35.3631 38.0528 35.1843 37.7557 35.063C37.4586 34.9416 37.1404 34.8801 36.8195 34.8819H7.55452C6.90772 34.8819 6.28742 34.625 5.83006 34.1676C5.37271 33.7103 5.11577 33.09 5.11577 32.4432V8.05574C5.11577 7.40894 5.37271 6.78864 5.83006 6.33128C6.28742 5.87393 6.90772 5.61699 7.55452 5.61699H41.6969C42.3437 5.61699 42.964 5.87393 43.4214 6.33128C43.8788 6.78864 44.1357 7.40894 44.1357 8.05574V41.1983Z" fill="white"/>
</svg>
