<svg width="50" height="49" viewBox="0 0 50 49" fill="none" xmlns="http://www.w3.org/2000/svg">
<path d="M24.6257 0.231934C11.1582 0.231934 0.238281 11.1519 0.238281 24.6194C0.238281 38.0869 11.1582 49.0068 24.6257 49.0068C38.0933 49.0068 49.0132 38.0869 49.0132 24.6194C49.0132 11.1519 38.0933 0.231934 24.6257 0.231934ZM44.0377 16.835L37.342 18.8927C36.6561 17.3685 35.6981 15.9749 34.4787 14.7555C33.2593 13.5362 31.8658 12.5781 30.3415 11.8922L32.3992 5.19652C34.9904 6.23081 37.3638 7.79858 39.3997 9.8236C41.4357 11.8704 43.0034 14.2438 44.0377 16.835ZM24.6257 35.0712C18.8555 35.0712 14.174 30.3896 14.174 24.6194C14.174 18.8491 18.8555 14.1676 24.6257 14.1676C30.396 14.1676 35.0775 18.8491 35.0775 24.6194C35.0775 30.3896 30.396 35.0712 24.6257 35.0712ZM9.84084 9.83449C11.8768 7.79857 14.2502 6.2417 16.8413 5.20741L18.899 11.9031C17.3748 12.589 15.9813 13.547 14.7619 14.7664C13.5425 15.9858 12.5844 17.3794 11.8985 18.9036L5.20287 16.8459C6.24805 14.2438 7.81581 11.8704 9.84084 9.83449ZM5.21376 32.4038L11.9094 30.3461C12.5953 31.8703 13.5534 33.2639 14.7728 34.4832C15.9921 35.7026 17.3857 36.6607 18.9099 37.3466L16.8522 44.0422C14.2611 43.008 11.8876 41.4402 9.85173 39.4152C7.81581 37.3684 6.24805 34.9949 5.21376 32.4038ZM39.4106 39.4043C37.3747 41.4402 35.0013 42.9971 32.4101 44.0314L30.3524 37.3357C31.8766 36.6498 33.2702 35.6917 34.4896 34.4723C35.709 33.253 36.667 31.8594 37.3529 30.3352L44.0486 32.3929C43.0034 34.9949 41.4357 37.3684 39.4106 39.4043Z" fill="white"/>
</svg>
