<svg width="52" height="43" viewBox="0 0 52 43" fill="none" xmlns="http://www.w3.org/2000/svg">
<path d="M46.788 0.739502H5.46733C4.09747 0.739502 2.78371 1.29258 1.81507 2.27706C0.846423 3.26154 0.302246 4.59678 0.302246 5.98905V26.9872C0.302246 27.6834 0.574335 28.351 1.05866 28.8432C1.54298 29.3355 2.19986 29.612 2.88479 29.612C3.56972 29.612 4.2266 29.3355 4.71092 28.8432C5.19525 28.351 5.46733 27.6834 5.46733 26.9872V5.98905H46.788V37.4863H9.10872L18.3801 28.0634L21.7115 31.4756C21.9516 31.7216 22.2372 31.9169 22.552 32.0501C22.8667 32.1834 23.2042 32.252 23.5451 32.252C23.8861 32.252 24.2236 32.1834 24.5383 32.0501C24.853 31.9169 25.1387 31.7216 25.3787 31.4756L36.4579 20.1891V24.3625C36.4579 25.0586 36.7299 25.7262 37.2143 26.2185C37.6986 26.7107 38.3555 26.9872 39.0404 26.9872C39.7253 26.9872 40.3822 26.7107 40.8665 26.2185C41.3509 25.7262 41.6229 25.0586 41.6229 24.3625V13.8634C41.6189 13.5204 41.5487 13.1815 41.4163 12.866C41.1543 12.2246 40.6528 11.7149 40.0218 11.4486C39.7113 11.3141 39.3779 11.2427 39.0404 11.2386H28.7102C28.0253 11.2386 27.3684 11.5151 26.8841 12.0074C26.3998 12.4996 26.1277 13.1672 26.1277 13.8634C26.1277 14.5595 26.3998 15.2271 26.8841 15.7194C27.3684 16.2116 28.0253 16.4881 28.7102 16.4881H32.8165L23.5451 25.9111L20.2137 22.4989C19.9736 22.2529 19.6879 22.0576 19.3732 21.9243C19.0585 21.7911 18.721 21.7225 18.3801 21.7225C18.0391 21.7225 17.7016 21.7911 17.3869 21.9243C17.0722 22.0576 16.7865 22.2529 16.5464 22.4989L1.05118 38.2475C0.816067 38.4972 0.631764 38.7915 0.508849 39.1137C0.250548 39.7527 0.250548 40.4695 0.508849 41.1085C0.770913 41.7499 1.27238 42.2596 1.90342 42.5259C2.2139 42.6604 2.54731 42.7317 2.88479 42.7359H46.788C48.1579 42.7359 49.4717 42.1828 50.4403 41.1983C51.4089 40.2139 51.9531 38.8786 51.9531 37.4863V5.98905C51.9531 4.59678 51.4089 3.26154 50.4403 2.27706C49.4717 1.29258 48.1579 0.739502 46.788 0.739502Z" fill="white"/>
</svg>
