<svg width="46" height="45" viewBox="0 0 46 45" fill="none" xmlns="http://www.w3.org/2000/svg">
<path d="M41.0196 0.0183105H17.0523C15.8604 0.0183105 14.7174 0.49177 13.8746 1.33453C13.0318 2.1773 12.5584 3.32033 12.5584 4.51218V19.4917C12.5584 20.6836 13.0318 21.8266 13.8746 22.6694C14.7174 23.5122 15.8604 23.9856 17.0523 23.9856H41.0196C42.2114 23.9856 43.3544 23.5122 44.1972 22.6694C45.04 21.8266 45.5134 20.6836 45.5134 19.4917V4.51218C45.5134 3.32033 45.04 2.1773 44.1972 1.33453C43.3544 0.49177 42.2114 0.0183105 41.0196 0.0183105ZM32.0318 10.504C32.4291 10.504 32.8101 10.6618 33.091 10.9427C33.372 11.2237 33.5298 11.6047 33.5298 12.002V16.7954C33.5298 17.1927 33.372 17.5737 33.091 17.8546C32.8101 18.1356 32.4291 18.2934 32.0318 18.2934H30.6687C30.5779 18.6045 30.3887 18.8778 30.1294 19.0723C29.8701 19.2668 29.5548 19.3719 29.2306 19.3719C28.9065 19.3719 28.5912 19.2668 28.3319 19.0723C28.0726 18.8778 27.8834 18.6045 27.7926 18.2934H26.04C25.6427 18.2934 25.2617 18.1356 24.9808 17.8546C24.6999 17.5737 24.542 17.1927 24.542 16.7954C24.542 16.3981 24.6999 16.0171 24.9808 15.7362C25.2617 15.4553 25.6427 15.2975 26.04 15.2975H30.5339V13.4999H26.04C25.6427 13.4999 25.2617 13.3421 24.9808 13.0612C24.6999 12.7803 24.542 12.3992 24.542 12.002V7.2085C24.542 6.81122 24.6999 6.43021 24.9808 6.14929C25.2617 5.86836 25.6427 5.71054 26.04 5.71054H27.7926C27.8834 5.3994 28.0726 5.12608 28.3319 4.93161C28.5912 4.73714 28.9065 4.63202 29.2306 4.63202C29.5548 4.63202 29.8701 4.73714 30.1294 4.93161C30.3887 5.12608 30.5779 5.3994 30.6687 5.71054H32.0318C32.4291 5.71054 32.8101 5.86836 33.091 6.14929C33.372 6.43021 33.5298 6.81122 33.5298 7.2085C33.5298 7.60578 33.372 7.98679 33.091 8.26772C32.8101 8.54864 32.4291 8.70646 32.0318 8.70646H27.538V10.504H32.0318ZM41.0196 32.1495L35.0277 33.3778C35.0424 33.0884 35.0424 32.7984 35.0277 32.509C35.0123 31.9162 34.8796 31.3323 34.6374 30.791C34.3952 30.2497 34.0483 29.7617 33.6167 29.3551C33.185 28.9485 32.6771 28.6313 32.1223 28.4219C31.5675 28.2125 30.9767 28.115 30.3841 28.135C28.4376 28.1944 26.5054 27.7833 24.7518 26.9366L21.9206 25.6933C21.1604 25.3648 20.3144 25.2912 19.5089 25.4836C19.4049 25.4974 19.3038 25.5278 19.2093 25.5734L17.3518 26.4123C17.9004 27.9009 18.0451 29.5083 17.7713 31.0709L16.0037 40.568C16.0037 40.7927 15.8839 41.0024 15.8239 41.2271L23.838 44.3129C24.9153 44.7407 26.0642 44.9593 27.2234 44.957C28.4094 44.9564 29.5842 44.7275 30.6837 44.2829L43.1017 39.2498C44.0066 38.8814 44.7375 38.1827 45.1464 37.2954C45.5553 36.4081 45.6115 35.3985 45.3037 34.4713C44.9893 33.633 44.3827 32.9364 43.5955 32.5098C42.8083 32.0832 41.8936 31.9553 41.0196 32.1495ZM11.0604 24.42L2.34233 23.1018C2.12557 23.0621 1.90273 23.0708 1.6897 23.1271C1.47667 23.1835 1.27869 23.2861 1.10987 23.4277C0.941062 23.5694 0.805576 23.7465 0.713076 23.9465C0.620576 24.1465 0.573341 24.3644 0.574737 24.5848V42.5603C0.574737 42.9576 0.732557 43.3386 1.01348 43.6195C1.2944 43.9004 1.67541 44.0582 2.07269 44.0582H8.6637C9.75355 44.0138 10.7924 43.5846 11.5959 42.847C12.3994 42.1093 12.9155 41.1108 13.0527 40.0287L14.8203 30.5167C14.9577 29.7824 14.9477 29.0282 14.7908 28.2978C14.634 27.5674 14.3334 26.8756 13.9065 26.2625C13.5812 25.7791 13.1612 25.3666 12.6721 25.0499C12.1829 24.7333 11.6347 24.519 11.0604 24.42Z" fill="white"/>
</svg>
