<svg width="39" height="28" viewBox="0 0 39 28" fill="none" xmlns="http://www.w3.org/2000/svg">
<path d="M36.4704 5.76598C36.2822 5.02705 35.8989 4.35001 35.3591 3.80324C34.8194 3.25648 34.1424 2.85935 33.3965 2.65199C30.6712 1.99805 19.77 1.99805 19.77 1.99805C19.77 1.99805 8.8688 1.99805 6.1435 2.71427C5.3976 2.92163 4.7206 3.31876 4.18088 3.86552C3.64116 4.41229 3.25783 5.08933 3.06961 5.82826C2.57084 8.54609 2.32686 11.3032 2.34075 14.0648C2.32297 16.8472 2.56696 19.6253 3.06961 22.3636C3.27711 23.0796 3.66903 23.7309 4.20749 24.2545C4.74596 24.7782 5.41277 25.1566 6.1435 25.353C8.8688 26.0692 19.77 26.0692 19.77 26.0692C19.77 26.0692 30.6712 26.0692 33.3965 25.353C34.1424 25.1457 34.8194 24.7485 35.3591 24.2018C35.8989 23.655 36.2822 22.978 36.4704 22.239C36.9653 19.5417 37.2093 16.8056 37.1993 14.0648C37.217 11.2824 36.973 8.50428 36.4704 5.76598Z" stroke="white" stroke-width="3" stroke-linecap="round" stroke-linejoin="round"/>
<path d="M16.2031 19.1564L25.3139 14.065L16.2031 8.97363V19.1564Z" stroke="white" stroke-width="3" stroke-linecap="round" stroke-linejoin="round"/>
</svg>
